{"accessors":[{"bufferView":0,"componentType":5123,"count":72,"max":[47],"min":[0],"type":"SCALAR"},{"bufferView":1,"componentType":5126,"count":48,"max":[0.0,0.00522555410861969,0.5],"min":[-0.5,-1.1641532182693481e-10,-0.5],"type":"VEC3"},{"bufferView":2,"componentType":5126,"count":48,"max":[1.0,1.0,1.0],"min":[-1.0,-1.0,-1.0],"type":"VEC3"},{"bufferView":3,"componentType":5126,"count":48,"max":[0.5,1.0],"min":[0.0,0.0],"type":"VEC2"},{"bufferView":4,"componentType":5123,"count":60,"max":[19],"min":[0],"type":"SCALAR"},{"bufferView":5,"componentType":5126,"count":20,"max":[0.5,0.0,0.5],"min":[0.0,0.0,-0.5],"type":"VEC3"},{"bufferView":6,"componentType":5126,"count":20,"max":[0.0,1.0,0.0],"min":[0.0,-1.0,0.0],"type":"VEC3"},{"bufferView":7,"componentType":5126,"count":20,"max":[1.0,1.0],"min":[0.5,0.0],"type":"VEC2"},{"bufferView":8,"componentType":5123,"count":600,"max":[120],"min":[0],"type":"SCALAR"},{"bufferView":9,"componentType":5126,"count":121,"max":[0.6559339165687561,0.45165708661079407,0.43210911750793457],"min":[-0.4040594696998596,0.22996380925178528,-0.6113300323486328],"type":"VEC3"},{"bufferView":10,"componentType":5126,"count":121,"max":[0.6758067607879639,0.9997864961624146,0.5125731825828552],"min":[-0.6415133476257324,0.4613271951675415,-0.833387017250061],"type":"VEC3"},{"bufferView":11,"componentType":5126,"count":121,"max":[1.0,1.0],"min":[0.0,0.0],"type":"VEC2"},{"bufferView":12,"componentType":5123,"count":4734,"max":[1627],"min":[0],"type":"SCALAR"},{"bufferView":13,"componentType":5126,"count":1628,"max":[0.3816063404083252,1.7560867071151733,-0.37422844767570496],"min":[-0.3852631449699402,-1.7380520105361938,-0.9333547353744507],"type":"VEC3"},{"bufferView":14,"componentType":5126,"count":1628,"max":[1.0,0.9993764162063599,0.9999514818191528],"min":[-1.0,-0.9993754029273987,-0.9999367594718933],"type":"VEC3"},{"bufferView":15,"componentType":5126,"count":1628,"max":[0.875,1.0],"min":[0.07248636335134506,0.0],"type":"VEC2"},{"bufferView":16,"componentType":5126,"count":1628,"max":[0.9540922045707703,0.9980079680681229],"min":[0.0001420601038262248,0.0019919276237487793],"type":"VEC2"},{"bufferView":17,"componentType":5123,"count":984,"max":[431],"min":[0],"type":"SCALAR"},{"bufferView":18,"componentType":5126,"count":432,"max":[0.3916286528110504,1.8152010440826416,-0.37422844767570496],"min":[-0.40506628155708313,-1.7473787069320679,-0.6444783210754395],"type":"VEC3"},{"bufferView":19,"componentType":5126,"count":432,"max":[0.992619514465332,0.9875003099441528,0.997522234916687],"min":[-0.9926206469535828,-0.9845573902130127,-0.8981235027313232],"type":"VEC3"},{"bufferView":20,"componentType":5126,"count":432,"max":[0.7571513652801514,1.0],"min":[-0.0,0.0],"type":"VEC2"},{"bufferView":21,"componentType":5126,"count":432,"max":[0.9540921449661255,0.9980079680681229],"min":[0.0019044014625251293,0.003313779830932617],"type":"VEC2"},{"bufferView":22,"componentType":5123,"count":2016,"max":[780],"min":[0],"type":"SCALAR"},{"bufferView":23,"componentType":5126,"count":781,"max":[6.477721214294434,4.701635360717773,6.642458915710449],"min":[-5.162935256958008,-8.519453048706055,-1.5698084831237793],"type":"VEC3"},{"bufferView":24,"componentType":5126,"count":781,"max":[0.993136465549469,0.9536098837852478,0.9973841905593872],"min":[-0.9809001684188843,-0.9996559619903564,-0.9972428679466248],"type":"VEC3"},{"bufferView":25,"componentType":5126,"count":781,"max":[0.65625,0.9999999850988388],"min":[0.34375,0.0],"type":"VEC2"},{"bufferView":26,"componentType":5123,"count":372,"max":[202],"min":[0],"type":"SCALAR"},{"bufferView":27,"componentType":5126,"count":203,"max":[0.049281224608421326,1.6920937299728394,0.11658502370119095],"min":[-0.18388882279396057,1.2957719564437866,-0.11658501625061035],"type":"VEC3"},{"bufferView":28,"componentType":5126,"count":203,"max":[0.9496338367462158,1.0,0.9800552725791931],"min":[-0.9086634516716003,-0.9999999403953552,-0.9800551533699036],"type":"VEC3"},{"bufferView":29,"componentType":5126,"count":203,"max":[1.0,1.0],"min":[0.0,0.0],"type":"VEC2"},{"bufferView":30,"componentType":5123,"count":420,"max":[211],"min":[0],"type":"SCALAR"},{"bufferView":31,"componentType":5126,"count":212,"max":[0.03488145023584366,1.6766654253005981,0.10218524932861328],"min":[-0.19167274236679077,1.3245714902877808,-0.10218524187803268],"type":"VEC3"},{"bufferView":32,"componentType":5126,"count":212,"max":[0.9463607668876648,1.0,0.9206520915031433],"min":[-0.9999347925186157,-1.0,-0.9206520318984985],"type":"VEC3"},{"bufferView":33,"componentType":5126,"count":212,"max":[1.0,1.0],"min":[0.0,0.0],"type":"VEC2"},{"bufferView":34,"componentType":5123,"count":336,"max":[239],"min":[0],"type":"SCALAR"},{"bufferView":35,"componentType":5126,"count":240,"max":[1.0,1.0,0.9999999403953552],"min":[-0.9999998807907104,-1.0,-0.9999998807907104],"type":"VEC3"},{"bufferView":36,"componentType":5126,"count":240,"max":[0.9086633324623108,0.9775985479354858,0.9086633920669556],"min":[-0.9086633324623108,-0.9775985479354858,-0.9086633920669556],"type":"VEC3"},{"bufferView":37,"componentType":5126,"count":240,"max":[1.0,1.0],"min":[0.0,0.0],"type":"VEC2"},{"bufferView":38,"componentType":5123,"count":336,"max":[239],"min":[0],"type":"SCALAR"},{"bufferView":39,"componentType":5126,"count":240,"max":[1.0,1.0,0.9999999403953552],"min":[-0.9999998807907104,-1.0,-0.9999998807907104],"type":"VEC3"},{"bufferView":40,"componentType":5126,"count":240,"max":[0.9086633324623108,0.9775985479354858,0.9086633920669556],"min":[-0.9086633324623108,-0.9775985479354858,-0.9086633920669556],"type":"VEC3"},{"bufferView":41,"componentType":5126,"count":240,"max":[1.0,1.0],"min":[0.0,0.0],"type":"VEC2"},{"bufferView":42,"componentType":5123,"count":336,"max":[239],"min":[0],"type":"SCALAR"},{"bufferView":43,"componentType":5126,"count":240,"max":[1.0,1.0,0.9999999403953552],"min":[-0.9999998807907104,-1.0,-0.9999998807907104],"type":"VEC3"},{"bufferView":44,"componentType":5126,"count":240,"max":[0.9086633324623108,0.9775985479354858,0.9086633920669556],"min":[-0.9086633324623108,-0.9775985479354858,-0.9086633920669556],"type":"VEC3"},{"bufferView":45,"componentType":5126,"count":240,"max":[1.0,1.0],"min":[0.0,0.0],"type":"VEC2"},{"bufferView":46,"componentType":5123,"count":336,"max":[239],"min":[0],"type":"SCALAR"},{"bufferView":47,"componentType":5126,"count":240,"max":[1.0,1.0,0.9999999403953552],"min":[-0.9999998807907104,-1.0,-0.9999998807907104],"type":"VEC3"},{"bufferView":48,"componentType":5126,"count":240,"max":[0.9086633324623108,0.9775985479354858,0.9086633920669556],"min":[-0.9086633324623108,-0.9775985479354858,-0.9086633920669556],"type":"VEC3"},{"bufferView":49,"componentType":5126,"count":240,"max":[1.0,1.0],"min":[0.0,0.0],"type":"VEC2"},{"bufferView":50,"componentType":5123,"count":336,"max":[239],"min":[0],"type":"SCALAR"},{"bufferView":51,"componentType":5126,"count":240,"max":[1.0,1.0,0.9999999403953552],"min":[-0.9999998807907104,-1.0,-0.9999998807907104],"type":"VEC3"},{"bufferView":52,"componentType":5126,"count":240,"max":[0.9086633324623108,0.9775985479354858,0.9086633920669556],"min":[-0.9086633324623108,-0.9775985479354858,-0.9086633920669556],"type":"VEC3"},{"bufferView":53,"componentType":5126,"count":240,"max":[1.0,1.0],"min":[0.0,0.0],"type":"VEC2"},{"bufferView":54,"componentType":5123,"count":336,"max":[239],"min":[0],"type":"SCALAR"},{"bufferView":55,"componentType":5126,"count":240,"max":[1.0,1.0,0.9999999403953552],"min":[-0.9999998807907104,-1.0,-0.9999998807907104],"type":"VEC3"},{"bufferView":56,"componentType":5126,"count":240,"max":[0.9086633324623108,0.9775985479354858,0.9086633920669556],"min":[-0.9086633324623108,-0.9775985479354858,-0.9086633920669556],"type":"VEC3"},{"bufferView":57,"componentType":5126,"count":240,"max":[1.0,1.0],"min":[0.0,0.0],"type":"VEC2"},{"bufferView":58,"componentType":5123,"count":336,"max":[239],"min":[0],"type":"SCALAR"},{"bufferView":59,"componentType":5126,"count":240,"max":[1.0,1.0,0.9999999403953552],"min":[-0.9999998807907104,-1.0,-0.9999998807907104],"type":"VEC3"},{"bufferView":60,"componentType":5126,"count":240,"max":[0.9086633324623108,0.9775985479354858,0.9086633920669556],"min":[-0.9086633324623108,-0.9775985479354858,-0.9086633920669556],"type":"VEC3"},{"bufferView":61,"componentType":5126,"count":240,"max":[1.0,1.0],"min":[0.0,0.0],"type":"VEC2"},{"bufferView":62,"componentType":5123,"count":336,"max":[239],"min":[0],"type":"SCALAR"},{"bufferView":63,"componentType":5126,"count":240,"max":[1.0,1.0,0.9999999403953552],"min":[-0.9999998807907104,-1.0,-0.9999998807907104],"type":"VEC3"},{"bufferView":64,"componentType":5126,"count":240,"max":[0.9086633324623108,0.9775985479354858,0.9086633920669556],"min":[-0.9086633324623108,-0.9775985479354858,-0.9086633920669556],"type":"VEC3"},{"bufferView":65,"componentType":5126,"count":240,"max":[1.0,1.0],"min":[0.0,0.0],"type":"VEC2"},{"bufferView":66,"componentType":5123,"count":336,"max":[239],"min":[0],"type":"SCALAR"},{"bufferView":67,"componentType":5126,"count":240,"max":[1.0,1.0,0.9999999403953552],"min":[-0.9999998807907104,-1.0,-0.9999998807907104],"type":"VEC3"},{"bufferView":68,"componentType":5126,"count":240,"max":[0.9086633324623108,0.9775985479354858,0.9086633920669556],"min":[-0.9086633324623108,-0.9775985479354858,-0.9086633920669556],"type":"VEC3"},{"bufferView":69,"componentType":5126,"count":240,"max":[1.0,1.0],"min":[0.0,0.0],"type":"VEC2"},{"bufferView":70,"componentType":5123,"count":384,"max":[271],"min":[0],"type":"SCALAR"},{"bufferView":71,"componentType":5126,"count":272,"max":[1.255555510520935,2.1812989711761475,0.9999990463256836],"min":[-1.255555510520935,-1.0000038146972656,-1.0000004768371582],"type":"VEC3"},{"bufferView":72,"componentType":5126,"count":272,"max":[0.8705211877822876,0.9832091927528381,0.9331533312797546],"min":[-0.8705203533172607,-0.9844276309013367,-0.9331531524658203],"type":"VEC3"},{"bufferView":73,"componentType":5126,"count":272,"max":[1.0,1.0],"min":[0.0,0.0],"type":"VEC2"},{"bufferView":74,"componentType":5123,"count":114,"max":[41],"min":[0],"type":"SCALAR"},{"bufferView":75,"componentType":5126,"count":42,"max":[1.0,1.0,1.0000001192092896],"min":[-1.000000238418579,-1.0,-1.0000004768371582],"type":"VEC3"},{"bufferView":76,"componentType":5126,"count":42,"max":[0.8944272398948669,1.0,0.8944271802902222],"min":[-0.8944271802902222,-1.0,-0.8944271206855774],"type":"VEC3"},{"bufferView":77,"componentType":5126,"count":42,"max":[0.75,1.0000001192092896],"min":[0.24999994039535522,0.0],"type":"VEC2"},{"bufferView":78,"componentType":5123,"count":2400,"max":[440],"min":[0],"type":"SCALAR"},{"bufferView":79,"componentType":5126,"count":441,"max":[1.5000001192092896,0.5000000596046448,1.5000003576278687],"min":[-1.5000004768371582,-0.5000002384185791,-1.5000008344650269],"type":"VEC3"},{"bufferView":80,"componentType":5126,"count":441,"max":[1.0,0.9996175169944763,1.0],"min":[-1.0,-0.9996175765991211,-1.0],"type":"VEC3"},{"bufferView":81,"componentType":5126,"count":441,"max":[1.0000001192092896,1.0000001564621925],"min":[0.0,0.0],"type":"VEC2"},{"bufferView":82,"componentType":5126,"count":3,"max":[8.333333333333334],"min":[0.0],"type":"SCALAR"},{"bufferView":83,"componentType":5126,"count":3,"max":[0.0,0.23051991666177513,0.0],"min":[0.0,0.0,0.0],"type":"VEC3"},{"bufferView":84,"componentType":5126,"count":201,"max":[8.333333333333334],"min":[0.0],"type":"SCALAR"},{"bufferView":85,"componentType":5126,"count":201,"max":[0.0,1.0,0.0,1.0],"min":[0.0,0.0,0.0,-1.0],"type":"VEC4"},{"bufferView":86,"componentType":5126,"count":3,"max":[8.333333333333334],"min":[0.0],"type":"SCALAR"},{"bufferView":87,"componentType":5126,"count":3,"max":[1.0,1.0,1.0],"min":[1.0,1.0,1.0],"type":"VEC3"}],"animations":[{"channels":[{"sampler":0,"target":{"node":30,"path":"translation"}},{"sampler":1,"target":{"node":30,"path":"rotation"}},{"sampler":2,"target":{"node":30,"path":"scale"}}],"extensions":{"S8S_v3d_animation_data":{"auto":true,"loop":"REPEAT","offset":0.0,"repeatCount":1.0,"repeatInfinite":true}},"name":"nurbsCircle1","samplers":[{"input":82,"interpolation":"LINEAR","output":83},{"input":84,"interpolation":"LINEAR","output":85},{"input":86,"interpolation":"LINEAR","output":87}]}],"asset":{"copyright":null,"generator":"Soft8Soft Verge3D for Maya plug-in","version":"2.0"},"bufferViews":[{"buffer":0,"byteLength":144,"byteOffset":0,"target":34963},{"buffer":0,"byteLength":576,"byteOffset":144,"target":34962},{"buffer":0,"byteLength":576,"byteOffset":720,"target":34962},{"buffer":0,"byteLength":384,"byteOffset":1296,"target":34962},{"buffer":0,"byteLength":120,"byteOffset":1680,"target":34963},{"buffer":0,"byteLength":240,"byteOffset":1800,"target":34962},{"buffer":0,"byteLength":240,"byteOffset":2040,"target":34962},{"buffer":0,"byteLength":160,"byteOffset":2280,"target":34962},{"buffer":0,"byteLength":1200,"byteOffset":2440,"target":34963},{"buffer":0,"byteLength":1452,"byteOffset":3640,"target":34962},{"buffer":0,"byteLength":1452,"byteOffset":5092,"target":34962},{"buffer":0,"byteLength":968,"byteOffset":6544,"target":34962},{"buffer":0,"byteLength":9468,"byteOffset":7512,"target":34963},{"buffer":0,"byteLength":19536,"byteOffset":16980,"target":34962},{"buffer":0,"byteLength":19536,"byteOffset":36516,"target":34962},{"buffer":0,"byteLength":13024,"byteOffset":56052,"target":34962},{"buffer":0,"byteLength":13024,"byteOffset":69076,"target":34962},{"buffer":0,"byteLength":1968,"byteOffset":82100,"target":34963},{"buffer":0,"byteLength":5184,"byteOffset":84068,"target":34962},{"buffer":0,"byteLength":5184,"byteOffset":89252,"target":34962},{"buffer":0,"byteLength":3456,"byteOffset":94436,"target":34962},{"buffer":0,"byteLength":3456,"byteOffset":97892,"target":34962},{"buffer":0,"byteLength":4032,"byteOffset":101348,"target":34963},{"buffer":0,"byteLength":9372,"byteOffset":105380,"target":34962},{"buffer":0,"byteLength":9372,"byteOffset":114752,"target":34962},{"buffer":0,"byteLength":6248,"byteOffset":124124,"target":34962},{"buffer":0,"byteLength":744,"byteOffset":130372,"target":34963},{"buffer":0,"byteLength":2436,"byteOffset":131116,"target":34962},{"buffer":0,"byteLength":2436,"byteOffset":133552,"target":34962},{"buffer":0,"byteLength":1624,"byteOffset":135988,"target":34962},{"buffer":0,"byteLength":840,"byteOffset":137612,"target":34963},{"buffer":0,"byteLength":2544,"byteOffset":138452,"target":34962},{"buffer":0,"byteLength":2544,"byteOffset":140996,"target":34962},{"buffer":0,"byteLength":1696,"byteOffset":143540,"target":34962},{"buffer":0,"byteLength":672,"byteOffset":145236,"target":34963},{"buffer":0,"byteLength":2880,"byteOffset":145908,"target":34962},{"buffer":0,"byteLength":2880,"byteOffset":148788,"target":34962},{"buffer":0,"byteLength":1920,"byteOffset":151668,"target":34962},{"buffer":0,"byteLength":672,"byteOffset":153588,"target":34963},{"buffer":0,"byteLength":2880,"byteOffset":154260,"target":34962},{"buffer":0,"byteLength":2880,"byteOffset":157140,"target":34962},{"buffer":0,"byteLength":1920,"byteOffset":160020,"target":34962},{"buffer":0,"byteLength":672,"byteOffset":161940,"target":34963},{"buffer":0,"byteLength":2880,"byteOffset":162612,"target":34962},{"buffer":0,"byteLength":2880,"byteOffset":165492,"target":34962},{"buffer":0,"byteLength":1920,"byteOffset":168372,"target":34962},{"buffer":0,"byteLength":672,"byteOffset":170292,"target":34963},{"buffer":0,"byteLength":2880,"byteOffset":170964,"target":34962},{"buffer":0,"byteLength":2880,"byteOffset":173844,"target":34962},{"buffer":0,"byteLength":1920,"byteOffset":176724,"target":34962},{"buffer":0,"byteLength":672,"byteOffset":178644,"target":34963},{"buffer":0,"byteLength":2880,"byteOffset":179316,"target":34962},{"buffer":0,"byteLength":2880,"byteOffset":182196,"target":34962},{"buffer":0,"byteLength":1920,"byteOffset":185076,"target":34962},{"buffer":0,"byteLength":672,"byteOffset":186996,"target":34963},{"buffer":0,"byteLength":2880,"byteOffset":187668,"target":34962},{"buffer":0,"byteLength":2880,"byteOffset":190548,"target":34962},{"buffer":0,"byteLength":1920,"byteOffset":193428,"target":34962},{"buffer":0,"byteLength":672,"byteOffset":195348,"target":34963},{"buffer":0,"byteLength":2880,"byteOffset":196020,"target":34962},{"buffer":0,"byteLength":2880,"byteOffset":198900,"target":34962},{"buffer":0,"byteLength":1920,"byteOffset":201780,"target":34962},{"buffer":0,"byteLength":672,"byteOffset":203700,"target":34963},{"buffer":0,"byteLength":2880,"byteOffset":204372,"target":34962},{"buffer":0,"byteLength":2880,"byteOffset":207252,"target":34962},{"buffer":0,"byteLength":1920,"byteOffset":210132,"target":34962},{"buffer":0,"byteLength":672,"byteOffset":212052,"target":34963},{"buffer":0,"byteLength":2880,"byteOffset":212724,"target":34962},{"buffer":0,"byteLength":2880,"byteOffset":215604,"target":34962},{"buffer":0,"byteLength":1920,"byteOffset":218484,"target":34962},{"buffer":0,"byteLength":768,"byteOffset":220404,"target":34963},{"buffer":0,"byteLength":3264,"byteOffset":221172,"target":34962},{"buffer":0,"byteLength":3264,"byteOffset":224436,"target":34962},{"buffer":0,"byteLength":2176,"byteOffset":227700,"target":34962},{"buffer":0,"byteLength":228,"byteOffset":229876,"target":34963},{"buffer":0,"byteLength":504,"byteOffset":230104,"target":34962},{"buffer":0,"byteLength":504,"byteOffset":230608,"target":34962},{"buffer":0,"byteLength":336,"byteOffset":231112,"target":34962},{"buffer":0,"byteLength":4800,"byteOffset":231448,"target":34963},{"buffer":0,"byteLength":5292,"byteOffset":236248,"target":34962},{"buffer":0,"byteLength":5292,"byteOffset":241540,"target":34962},{"buffer":0,"byteLength":3528,"byteOffset":246832,"target":34962},{"buffer":0,"byteLength":12,"byteOffset":250360},{"buffer":0,"byteLength":36,"byteOffset":250372},{"buffer":0,"byteLength":804,"byteOffset":250408},{"buffer":0,"byteLength":3216,"byteOffset":251212},{"buffer":0,"byteLength":12,"byteOffset":254428},{"buffer":0,"byteLength":36,"byteOffset":254440}],"buffers":[{"byteLength":254476,"uri":"Ruyi model.bin"}],"cameras":[{"extensions":{"S8S_v3d_camera_data":{"controls":"ORBIT","enablePan":true,"moveSpeed":1.0,"orbitMaxDistance":1000.0,"orbitMaxPolarAngle":3.141592653589793,"orbitMaxZoom":100.0,"orbitMinDistance":0.0,"orbitMinPolarAngle":0.0,"orbitMinZoom":0.009999999776482582,"orbitTarget":[0.004570565367113144,0.33753668751668453,-0.5667103431526552],"rotateSpeed":1.0,"viewportFitInitialAspect":1.5,"viewportFitType":"HORIZONTAL"}},"name":"perspShape","perspective":{"aspectRatio":1.5,"yfov":0.6605947096585074,"zfar":10000.0,"znear":0.1},"type":"perspective"}],"extensions":{"S8S_v3d_data":{"lights":[{"color":[1.0,1.0,1.0],"intensity":2.5108225345611572,"name":"directionalLightShape1","profile":"maya","shadow":{"bias":-0.0010000000474974513,"cameraFar":8.548478529447001,"cameraFov":0,"cameraNear":-2.819494440493089,"cameraOrthoBottom":-6.684699400353961,"cameraOrthoLeft":-5.610264620256441,"cameraOrthoRight":6.472903994391928,"cameraOrthoTop":3.9792133249693835,"enabled":false,"expBias":4.0,"mapSize":512,"radius":0,"slopeScaledBias":2.5},"type":"directional"},{"color":[1.0,1.0,1.0],"intensity":2.5108225345611572,"name":"directionalLightShape2","profile":"maya","shadow":{"bias":-0.0010000000474974513,"cameraFar":8.677365823192526,"cameraFov":0,"cameraNear":-3.9155087348273954,"cameraOrthoBottom":-6.18190278760115,"cameraOrthoLeft":-6.842340392875056,"cameraOrthoRight":5.3041690837808435,"cameraOrthoTop":4.482009937722344,"enabled":false,"expBias":4.0,"mapSize":512,"radius":0,"slopeScaledBias":2.5},"type":"directional"},{"color":[1.0,1.0,1.0],"intensity":2.5108225345611572,"name":"directionalLightShape3","profile":"maya","shadow":{"bias":-0.0010000000474974513,"cameraFar":7.865127665610541,"cameraFov":0,"cameraNear":-3.8485543512889913,"cameraOrthoBottom":-6.717112814132905,"cameraOrthoLeft":-6.507669570398356,"cameraOrthoRight":6.236039967301824,"cameraOrthoTop":5.855403240395457,"enabled":false,"expBias":4.0,"mapSize":512,"radius":0,"slopeScaledBias":2.5},"type":"directional"}]}},"extensionsUsed":["S8S_v3d_texture_data","S8S_v3d_material_data","S8S_v3d_data","S8S_v3d_camera_data","S8S_v3d_node_data","S8S_v3d_animation_data","S8S_v3d_scene_data"],"images":[{"mimeType":"image/jpeg","uri":"IMG_2349.jpg"}],"materials":[{"extensions":{"S8S_v3d_material_data":{"gtaoVisible":true,"nodeGraph":{"edges":[{"fromNode":1,"fromOutput":0,"toInput":0,"toNode":0},{"fromNode":2,"fromOutput":1,"toInput":1,"toNode":1},{"fromNode":3,"fromOutput":0,"toInput":0,"toNode":2}],"nodes":[{"inputs":[[0.0,0.0,0.0,1],[0,0,0,0],[0,0,0]],"is_active_output":true,"name":"aiStandardSurface1SG","outputs":[],"type":"SHADING_ENGINE_MY"},{"inputs":[1.0,[0.0,0.0,0.0],0.0,0.0,1.0,[1.0,1.0,1.0],0.20000000298023224,0.0,[1.0,1.0,1.0],0.0,[0.0,0.0,0.0],0.0,0.0,[1.0,1.0,1.0],[1.0,1.0,1.0],0.0,[1.0,1.0,1.0],0.10000000149011612,0.0,[1.0,1.0,1.0],0.30000001192092896,0.0,[1.0,1.0,1.0],[1.0,1.0,1.0],[1.0,1.0,1.0],[0.0,0.0,0.0],1.5],"name":"ImagePlane","outputs":[[0.0,0.0,0.0,0],[0.0,0.0,0.0]],"thinWalled":false,"type":"STANDARD_SURFACE_AR"},{"inputs":[[0.0,0.0]],"name":"file1","outputs":[1.0,[0.0,0.0,0.0],[2694.0,3645.0],[0.0,0.0,0.0]],"texture":0,"type":"FILE_MY"},{"inputs":[[0.0,0.0],[1.0,1.0],0.0],"name":"place2dTexture1","outputs":[[0.0,0.0]],"type":"PLACE_2D_TEXTURE_MY","uvIndex":0}]},"profile":"maya"}},"name":"ImagePlane"},{"extensions":{"S8S_v3d_material_data":{"gtaoVisible":true,"nodeGraph":{"edges":[{"fromNode":1,"fromOutput":0,"toInput":0,"toNode":0}],"nodes":[{"inputs":[[0.12460000067949295,0.0,0.42500001192092896,1],[0,0,0,0],[0,0,0]],"is_active_output":true,"name":"aiStandardSurface9SG","outputs":[],"type":"SHADING_ENGINE_MY"},{"inputs":[1.0,[0.12460000067949295,0.0,0.42500001192092896],0.0,0.0,1.0,[1.0,0.48100000619888306,0.8637536764144897],0.20000000298023224,0.0,[1.0,1.0,1.0],0.0,[0.0,0.0,0.0],0.0,0.0,[1.0,1.0,1.0],[1.0,1.0,1.0],0.0,[1.0,1.0,1.0],0.10000000149011612,0.13661202788352966,[1.0,0.48100000619888306,0.8637536764144897],0.22404371201992035,0.0,[1.0,1.0,1.0],[1.0,1.0,1.0],[1.0,1.0,1.0],[0.0,0.0,0.0],1.5],"name":"aiStandardSurface9","outputs":[[0.12460000067949295,0.0,0.42500001192092896,0],[0.0,0.0,0.0]],"thinWalled":true,"type":"STANDARD_SURFACE_AR"}]},"profile":"maya"}},"name":"aiStandardSurface9"},{"extensions":{"S8S_v3d_material_data":{"gtaoVisible":true,"nodeGraph":{"edges":[{"fromNode":1,"fromOutput":0,"toInput":0,"toNode":0},{"fromNode":2,"fromOutput":1,"toInput":1,"toNode":1},{"fromNode":3,"fromOutput":0,"toInput":10,"toNode":2}],"nodes":[{"inputs":[[0.11376408487558365,0.2844102382659912,0.11376408487558365,1],[0,0,0,0],[0,0,0]],"is_active_output":true,"name":"aiStandardSurface2SG","outputs":[],"type":"SHADING_ENGINE_MY"},{"inputs":[1.0,[0.11376408487558365,0.2844102382659912,0.11376408487558365],0.0,0.0,1.0,[1.0,1.0,1.0],0.3246753215789795,0.0,[1.0,1.0,1.0],1.0,[0.0,0.0,0.0],0.0,0.0,[0.10470402240753174,0.2418828159570694,0.8180000185966492],[1.0,1.0,1.0],0.0,[1.0,1.0,1.0],0.0,0.0,[1.0,1.0,1.0],0.30000001192092896,0.0,[1.0,1.0,1.0],[1.0,1.0,1.0],[1.0,1.0,1.0],[0.0,0.0,0.0],1.5199999809265137],"name":"aiStandardSurface2","outputs":[[0.11376408487558365,0.2844102382659912,0.11376408487558365,0],[0.0,0.0,0.0]],"thinWalled":false,"type":"STANDARD_SURFACE_AR"},{"inputTypes":["float","int","float","float","float","vec2","bool","float","float","float","vec2"],"inputs":[0.759036123752594,3,8.0,2.0,0.0,[0.5,0.5],false,0.7070000171661377,0.0,0.0,[-0.05119384080171585,0.0]],"name":"noise1","noiseType":1,"outputs":[0.7201250791549683,[0.11376408487558365,0.2844102382659912,0.11376408487558365]],"type":"NOISE_MY"},{"inputs":[[0.0,0.0],[1.399999976158142,1.399999976158142],0.0],"name":"place2dTexture2","outputs":[[-0.05119384080171585,0.0]],"type":"PLACE_2D_TEXTURE_MY","uvIndex":1}]},"profile":"maya"}},"name":"aiStandardSurface2"},{"extensions":{"S8S_v3d_material_data":{"gtaoVisible":true,"nodeGraph":{"edges":[{"fromNode":1,"fromOutput":0,"toInput":0,"toNode":0}],"nodes":[{"inputs":[[0.9472944736480713,0.7758305072784424,0.37123918533325195,1],[0,0,0,0],[0,0,0]],"is_active_output":true,"name":"aiStandardSurface8SG","outputs":[],"type":"SHADING_ENGINE_MY"},{"inputs":[1.0,[0.9472944736480713,0.7758305072784424,0.37123918533325195],0.0,1.0,1.0,[1.0000240802764893,0.9822533130645752,0.7529541254043579],0.15000000596046448,0.0,[1.0,1.0,1.0],1.0,[0.0,0.0,0.0],0.0,0.0,[1.0,1.0,1.0],[1.0,1.0,1.0],0.0,[1.0,1.0,1.0],0.0,0.0,[1.0,1.0,1.0],0.30000001192092896,0.0,[1.0,1.0,1.0],[1.0,1.0,1.0],[1.0,1.0,1.0],[0.0,0.0,0.0],1.5199999809265137],"name":"aiStandardSurface8","outputs":[[0.9472944736480713,0.7758305072784424,0.37123918533325195,0],[0.0,0.0,0.0]],"thinWalled":false,"type":"STANDARD_SURFACE_AR"}]},"profile":"maya"}},"name":"aiStandardSurface8"},{"extensions":{"S8S_v3d_material_data":{"gtaoVisible":true,"nodeGraph":{"edges":[{"fromNode":1,"fromOutput":0,"toInput":0,"toNode":0}],"nodes":[{"inputs":[[0.2832161486148834,0.24239997565746307,0.800000011920929,1],[0,0,0,0],[0,0,0]],"is_active_output":true,"name":"aiStandardSurface3SG","outputs":[],"type":"SHADING_ENGINE_MY"},{"inputs":[0.800000011920929,[0.3540201783180237,0.30299997329711914,1.0],0.0,0.37012988328933716,1.0,[0.5,0.0,1.0],0.4025973975658417,0.0,[1.0,1.0,1.0],1.0,[0.0,0.0,0.0],0.0,0.0,[1.0,1.0,1.0],[1.0,1.0,1.0],1.0,[1.0,1.0,1.0],0.0,0.0,[1.0,1.0,1.0],0.30000001192092896,0.0,[1.0,1.0,1.0],[1.0,1.0,1.0],[1.0,1.0,1.0],[0.0,0.0,0.0],1.5499999523162842],"name":"aiStandardSurface3","outputs":[[0.2832161486148834,0.24239997565746307,0.800000011920929,0],[0.0,0.0,0.0]],"thinWalled":false,"type":"STANDARD_SURFACE_AR"}]},"profile":"maya"}},"name":"aiStandardSurface3"},{"alphaMode":"BLEND","extensions":{"S8S_v3d_material_data":{"gtaoVisible":true,"nodeGraph":{"edges":[{"fromNode":1,"fromOutput":0,"toInput":0,"toNode":0}],"nodes":[{"inputs":[[1.0,0.48100000619888306,0.8637536764144897,1],[0,0,0,0],[0,0,0]],"is_active_output":true,"name":"aiStandardSurface5SG","outputs":[],"type":"SHADING_ENGINE_MY"},{"inputs":[1.0,[1.0,0.48100000619888306,0.8637536764144897],0.0,0.0,1.0,[1.0,1.0,1.0],0.18579235672950745,0.6393442749977112,[1.0,0.48100000619888306,0.8637536764144897],1.0,[1.0,0.48100000619888306,0.8637536764144897],0.0,0.0,[1.0,0.48100000619888306,0.8637536764144897],[1.0,1.0,1.0],0.0,[1.0,1.0,1.0],0.10000000149011612,0.0,[1.0,1.0,1.0],0.30000001192092896,0.0,[1.0,1.0,1.0],[1.0,1.0,1.0],[1.0,1.0,1.0],[0.0,0.0,0.0],1.5199999809265137],"name":"aiStandardSurface5","outputs":[[1.0,0.48100000619888306,0.8637536764144897,0],[0.0,0.0,0.0]],"thinWalled":false,"type":"STANDARD_SURFACE_AR"}]},"profile":"maya"}},"name":"aiStandardSurface5"},{"extensions":{"S8S_v3d_material_data":{"gtaoVisible":true,"nodeGraph":{"edges":[{"fromNode":1,"fromOutput":0,"toInput":0,"toNode":0}],"nodes":[{"inputs":[[1.0,1.0,1.0,1],[0,0,0,0],[0,0,0]],"is_active_output":true,"name":"aiStandardSurface7SG","outputs":[],"type":"SHADING_ENGINE_MY"},{"inputs":[1.0,[1.0,1.0,1.0],0.0,0.0,1.0,[1.0,1.0,1.0],0.20000000298023224,0.0,[1.0,1.0,1.0],0.0,[0.0,0.0,0.0],0.0,0.44262295961380005,[1.0,0.0,1.0],[1.0,1.0,1.0],0.0,[1.0,1.0,1.0],0.10000000149011612,0.0,[1.0,1.0,1.0],0.30000001192092896,0.0,[1.0,1.0,1.0],[1.0,1.0,1.0],[1.0,1.0,1.0],[0.0,0.0,0.0],1.5],"name":"aiStandardSurface7","outputs":[[1.0,1.0,1.0,0],[0.0,0.0,0.0]],"thinWalled":false,"type":"STANDARD_SURFACE_AR"}]},"profile":"maya"}},"name":"aiStandardSurface7"},{"alphaMode":"BLEND","extensions":{"S8S_v3d_material_data":{"gtaoVisible":true,"nodeGraph":{"edges":[{"fromNode":1,"fromOutput":0,"toInput":0,"toNode":0}],"nodes":[{"inputs":[[0.0,0.0,0.0,1],[0,0,0,0],[0,0,0]],"is_active_output":true,"name":"aiStandardSurface4SG","outputs":[],"type":"SHADING_ENGINE_MY"},{"inputs":[0.0,[1.0,1.0,1.0],0.0,0.0,1.0,[1.0,1.0,1.0],0.10000000149011612,1.0,[1.0,0.5742264986038208,0.11500000953674316],1.0,[1.0,0.5189000368118286,0.0],0.0,0.0,[1.0,1.0,1.0],[1.0,1.0,1.0],0.0,[1.0,1.0,1.0],0.0,0.0,[1.0,1.0,1.0],0.30000001192092896,0.0,[1.0,1.0,1.0],[1.0,1.0,1.0],[1.0,1.0,1.0],[0.0,0.0,0.0],1.5199999809265137],"name":"aiStandardSurface4","outputs":[[0.0,0.0,0.0,0],[0.0,0.0,0.0]],"thinWalled":false,"type":"STANDARD_SURFACE_AR"}]},"profile":"maya"}},"name":"aiStandardSurface4"},{"extensions":{"S8S_v3d_material_data":{"gtaoVisible":true,"nodeGraph":{"edges":[{"fromNode":1,"fromOutput":0,"toInput":0,"toNode":0}],"nodes":[{"inputs":[[0.0,0.0,0.0,1],[0,0,0,0],[0,0,0]],"is_active_output":true,"name":"initialParticleSE","outputs":[],"type":"SHADING_ENGINE_MY"},{"inputs":[[0.5,0.5,0.5],[0.0,0.0,0.0],[0.0,0.0,0.0],1.0,0.800000011920929,[1.0,1.0,1.0],0.0,[0.0,0.0,0.0]],"name":"lambert1","outputs":[[0.0,0.0,0.0,0]],"type":"LAMBERT_MY"}]},"profile":"maya"}},"name":"lambert1"},{"extensions":{"S8S_v3d_material_data":{"nodeGraph":{"edges":[],"nodes":[{"inputs":[[1.0,1.0,1.0],0.31963470578193665],"is_active_output":true,"name":"aiSkyDomeLightShape1","outputs":[],"type":"SKYDOME_LIGHT_AR"}]},"profile":"maya"}},"name":"Verge3D_Environment"}],"meshes":[{"name":"polySurfaceShape5","primitives":[{"attributes":{"NORMAL":2,"POSITION":1,"TEXCOORD_0":3},"indices":0,"material":0,"mode":4}]},{"name":"polySurfaceShape2","primitives":[{"attributes":{"NORMAL":6,"POSITION":5,"TEXCOORD_0":7},"indices":4,"material":0,"mode":4}]},{"name":"pPlaneShape3","primitives":[{"attributes":{"NORMAL":10,"POSITION":9,"TEXCOORD_0":11},"indices":8,"material":1,"mode":4}]},{"name":"Ruyi_bodyShape","primitives":[{"attributes":{"NORMAL":14,"POSITION":13,"TEXCOORD_0":15,"TEXCOORD_1":16},"indices":12,"material":2,"mode":4},{"attributes":{"NORMAL":19,"POSITION":18,"TEXCOORD_0":20,"TEXCOORD_1":21},"indices":17,"material":3,"mode":4}]},{"name":"Clit_bodyShape","primitives":[{"attributes":{"NORMAL":24,"POSITION":23,"TEXCOORD_0":25},"indices":22,"material":4,"mode":4}]},{"name":"clit_balls_leftShape","primitives":[{"attributes":{"NORMAL":28,"POSITION":27,"TEXCOORD_0":29},"indices":26,"material":5,"mode":4}]},{"name":"clit_balls_rightShape","primitives":[{"attributes":{"NORMAL":32,"POSITION":31,"TEXCOORD_0":33},"indices":30,"material":5,"mode":4}]},{"name":"pSphereShape5","primitives":[{"attributes":{"NORMAL":36,"POSITION":35,"TEXCOORD_0":37},"indices":34,"material":6,"mode":4}]},{"name":"pSphereShape6","primitives":[{"attributes":{"NORMAL":40,"POSITION":39,"TEXCOORD_0":41},"indices":38,"material":6,"mode":4}]},{"name":"pSphereShape7","primitives":[{"attributes":{"NORMAL":44,"POSITION":43,"TEXCOORD_0":45},"indices":42,"material":6,"mode":4}]},{"name":"pSphereShape8","primitives":[{"attributes":{"NORMAL":48,"POSITION":47,"TEXCOORD_0":49},"indices":46,"material":6,"mode":4}]},{"name":"pSphereShape9","primitives":[{"attributes":{"NORMAL":52,"POSITION":51,"TEXCOORD_0":53},"indices":50,"material":6,"mode":4}]},{"name":"pSphereShape10","primitives":[{"attributes":{"NORMAL":56,"POSITION":55,"TEXCOORD_0":57},"indices":54,"material":6,"mode":4}]},{"name":"pSphereShape1","primitives":[{"attributes":{"NORMAL":60,"POSITION":59,"TEXCOORD_0":61},"indices":58,"material":7,"mode":4}]},{"name":"pSphereShape2","primitives":[{"attributes":{"NORMAL":64,"POSITION":63,"TEXCOORD_0":65},"indices":62,"material":7,"mode":4}]},{"name":"pSphereShape3","primitives":[{"attributes":{"NORMAL":68,"POSITION":67,"TEXCOORD_0":69},"indices":66,"material":7,"mode":4}]},{"name":"pSphereShape4","primitives":[{"attributes":{"NORMAL":72,"POSITION":71,"TEXCOORD_0":73},"indices":70,"material":7,"mode":4}]},{"name":"pConeShape1","primitives":[{"attributes":{"NORMAL":76,"POSITION":75,"TEXCOORD_0":77},"indices":74,"material":8,"mode":4}]},{"name":"pTorusShape1","primitives":[{"attributes":{"NORMAL":80,"POSITION":79,"TEXCOORD_0":81},"indices":78,"material":8,"mode":4}]}],"nodes":[{"children":[1],"extensions":{"S8S_v3d_node_data":{"hidden":false,"hidpiCompositing":false}},"name":"reference_front","rotation":[0.7071067811865476,0.0,0.0,0.7071067811865476],"scale":[2.694,3.645,3.64306814675063],"translation":[0.0,0.0,0.0]},{"extensions":{"S8S_v3d_node_data":{"frustumCulling":true,"groupNames":["reference_front"],"hidden":true,"hidpiCompositing":false,"renderOrder":0,"useCastShadows":true,"useShadows":true}},"mesh":0,"name":"polySurface4","rotation":[0.0,0.0,0.0,1.0],"scale":[1.0,1.0,1.0],"translation":[0.23652346006529,-0.34610833139167835,0.0]},{"children":[3,4],"extensions":{"S8S_v3d_node_data":{"hidden":false,"hidpiCompositing":false}},"name":"reference_side","rotation":[0.5000000000000001,0.5000000000000001,-0.5000000000000001,0.5000000000000001],"scale":[2.694,3.645,3.64306814675063],"translation":[0.0,0.0,0.0]},{"extensions":{"S8S_v3d_node_data":{"frustumCulling":true,"hidden":true,"hidpiCompositing":false,"renderOrder":0,"useCastShadows":true,"useShadows":true}},"mesh":1,"name":"polySurface1","rotation":[0.0,0.0,0.0,1.0],"scale":[1.0,1.0,1.0],"translation":[0.0,0.0,0.0]},{"extensions":{"S8S_v3d_node_data":{"hidden":false,"hidpiCompositing":false}},"name":"transform1","rotation":[0.0,0.0,0.0,1.0],"scale":[1.0,1.0,1.0],"translation":[0.0,0.0,0.0]},{"extensions":{"S8S_v3d_node_data":{"hidden":false,"hidpiCompositing":false}},"name":"curve1","rotation":[0.0,0.0,0.0,1.0],"scale":[1.0,1.0,1.0],"translation":[0.0,0.0,0.0]},{"extensions":{"S8S_v3d_node_data":{"groupNames":["defaultLightSet"],"hidden":false,"hidpiCompositing":false}},"name":"aiSkyDomeLight1","rotation":[0.0,0.0,0.0,1.0],"scale":[1.0,1.0,1.0],"translation":[0.0,0.0,0.0]},{"extensions":{"S8S_v3d_node_data":{"hidden":false,"hidpiCompositing":false}},"name":"curve2","rotation":[0.0,0.0,0.0,1.0],"scale":[1.0,1.0,1.0],"translation":[0.0,0.0,0.0]},{"extensions":{"S8S_v3d_node_data":{"frustumCulling":true,"hidden":true,"hidpiCompositing":false,"renderOrder":0,"useCastShadows":true,"useShadows":true}},"mesh":2,"name":"pPlane1","rotation":[0.7208139906470944,0.0,0.0,0.6931285529304145],"scale":[9.085327256776916,9.085327256776916,9.085327256776916],"translation":[-1.104421323272884,-0.6781529392064037,-5.3231489111532895]},{"extensions":{"S8S_v3d_node_data":{"groupNames":["defaultLightSet"],"hidden":false,"hidpiCompositing":false,"light":0}},"name":"directionalLight1","rotation":[-0.18388525404006825,0.2071319114331613,-0.03967318722236219,0.9600565727228183],"scale":[1.0,0.9999999999999999,1.0],"translation":[0.8104105611296604,2.2869404394330024,1.0852856234259212]},{"extensions":{"S8S_v3d_node_data":{"groupNames":["defaultLightSet"],"hidden":false,"hidpiCompositing":false,"light":1}},"name":"directionalLight2","rotation":[-0.167504866431624,-0.4469902011732297,0.08561464921077959,0.8745353118184278],"scale":[1.0,0.9999999999999999,1.0],"translation":[-1.4046801592653426,1.54031058291416,0.5684194510338976]},{"extensions":{"S8S_v3d_node_data":{"groupNames":["defaultLightSet"],"hidden":false,"hidpiCompositing":false,"light":2}},"name":"directionalLight3","rotation":[-0.1812710921508405,-0.9208393631978811,-0.05028458599015022,0.34156568731001274],"scale":[1.0,0.9999999999999999,1.0],"translation":[-1.0997277027487644,0.8814364062245794,-2.39467419549964]},{"children":[13,14],"extensions":{"S8S_v3d_node_data":{"constraints":[{"mute":false,"name":"Ruyi_parentConstraint1","offsetMatrix":[1.0,0.0,0.0,0.0,0.0,1.0,0.0,0.0,0.0,0.0,1.0,0.0,0.0,0.0,0.5210774324715172,1.0],"target":30,"type":"childOf"}],"hidden":false,"hidpiCompositing":false}},"name":"Ruyi","rotation":[0.0,-0.09410831331851434,0.0,0.99556196460308],"scale":[1.0,1.0,1.0],"translation":[-0.09764017429746707,0.002390030495949186,-0.009229713912306647]},{"extensions":{"S8S_v3d_node_data":{"frustumCulling":true,"groupNames":["Ruyi"],"hidden":false,"hidpiCompositing":false,"renderOrder":0,"useCastShadows":true,"useShadows":true}},"mesh":3,"name":"Ruyi_body","rotation":[0.0,0.0,0.0,1.0],"scale":[1.0,1.0,1.0],"translation":[0.0,0.0,0.0]},{"children":[15,16,17,18,25],"extensions":{"S8S_v3d_node_data":{"groupNames":["Ruyi"],"hidden":false,"hidpiCompositing":false}},"name":"Clit_organism","rotation":[0.0,0.0,0.0,1.0],"scale":[1.0,1.0,1.0],"translation":[0.0,0.0,0.0]},{"extensions":{"S8S_v3d_node_data":{"frustumCulling":true,"groupNames":["Clit_organism","Ruyi"],"hidden":false,"hidpiCompositing":false,"renderOrder":0,"useCastShadows":true,"useShadows":true}},"mesh":4,"name":"Clit_body","rotation":[-0.14758587380890895,0.0,0.0,0.9890492454130182],"scale":[0.05740456604386141,0.05740456604386141,0.05740456604386141],"translation":[-0.017768205680441445,1.6926733951242396,-0.5541927501395597]},{"extensions":{"S8S_v3d_node_data":{"frustumCulling":true,"groupNames":["Clit_organism","Ruyi"],"hidden":false,"hidpiCompositing":false,"renderOrder":0,"useCastShadows":true,"useShadows":true}},"mesh":5,"name":"clit_balls_left","rotation":[-0.14758587380890895,0.0,0.0,0.9890492454130182],"scale":[0.8824112234452494,0.8824112234452494,1.1352429513407805],"translation":[-0.02522436591506108,0.1859544089018319,-0.05874497329786073]},{"extensions":{"S8S_v3d_node_data":{"frustumCulling":true,"groupNames":["Clit_organism","Ruyi"],"hidden":false,"hidpiCompositing":false,"renderOrder":0,"useCastShadows":true,"useShadows":true}},"mesh":6,"name":"clit_balls_right","rotation":[-0.14758587380890895,0.0,0.0,0.9890492454130182],"scale":[0.8824112234452494,0.8824112234452494,1.1352429513407805],"translation":[0.18314822797375296,0.17601467330555698,-0.06439594022378843]},{"children":[19,20,21,22,23,24],"extensions":{"S8S_v3d_node_data":{"groupNames":["Clit_organism","Ruyi"],"hidden":false,"hidpiCompositing":false}},"name":"Pearls_grp","rotation":[0.0,0.0,0.0,1.0],"scale":[1.0,1.0,1.0],"translation":[0.0,0.0,0.0]},{"extensions":{"S8S_v3d_node_data":{"frustumCulling":true,"groupNames":["Pearls_grp","Clit_organism","Ruyi"],"hidden":false,"hidpiCompositing":false,"renderOrder":0,"useCastShadows":true,"useShadows":true}},"mesh":7,"name":"pSphere5","rotation":[-0.17288168262997575,0.0,0.0,0.9849425992467928],"scale":[0.06072144149684319,0.04629258353120482,0.054108214929258845],"translation":[-0.1865923846602436,1.657874232506747,-0.5624376086749274]},{"extensions":{"S8S_v3d_node_data":{"frustumCulling":true,"groupNames":["Pearls_grp","Clit_organism","Ruyi"],"hidden":false,"hidpiCompositing":false,"renderOrder":0,"useCastShadows":true,"useShadows":true}},"mesh":8,"name":"pSphere6","rotation":[-0.17288168262997575,0.0,0.0,0.9849425992467928],"scale":[0.0873388475416293,0.06658506115257874,0.07782669544664765],"translation":[-0.2526236449956505,1.553626519793325,-0.5246782012250261]},{"extensions":{"S8S_v3d_node_data":{"frustumCulling":true,"groupNames":["Pearls_grp","Clit_organism","Ruyi"],"hidden":false,"hidpiCompositing":false,"renderOrder":0,"useCastShadows":true,"useShadows":true}},"mesh":9,"name":"pSphere7","rotation":[-0.1791244406130322,-0.04176502344239026,-0.2069526681951196,0.9609061924656567],"scale":[0.07007924863792675,0.053426753242410314,0.06244685491498161],"translation":[0.1561063632930247,1.6639550919375226,-0.5679249074384437]},{"extensions":{"S8S_v3d_node_data":{"frustumCulling":true,"groupNames":["Pearls_grp","Clit_organism","Ruyi"],"hidden":false,"hidpiCompositing":false,"renderOrder":0,"useCastShadows":true,"useShadows":true}},"mesh":10,"name":"pSphere8","rotation":[-0.1791244406130322,-0.04176502344239025,-0.2069526681951196,0.9609061924656567],"scale":[0.07706629683570608,0.05875351269276144,0.06867293743685633],"translation":[0.2294382736155977,1.5868790694240718,-0.53755573307696]},{"extensions":{"S8S_v3d_node_data":{"frustumCulling":true,"groupNames":["Pearls_grp","Clit_organism","Ruyi"],"hidden":false,"hidpiCompositing":false,"renderOrder":0,"useCastShadows":true,"useShadows":true}},"mesh":11,"name":"pSphere9","rotation":[-0.17288168262997577,0.0,0.0,0.9849425992467928],"scale":[0.040644471227340044,0.03098637866611101,0.03621784547011002],"translation":[-0.1180432825479564,1.7032495177155922,-0.5788729225802431]},{"extensions":{"S8S_v3d_node_data":{"frustumCulling":true,"groupNames":["Pearls_grp","Clit_organism","Ruyi"],"hidden":false,"hidpiCompositing":false,"renderOrder":0,"useCastShadows":true,"useShadows":true}},"mesh":12,"name":"pSphere10","rotation":[-0.17928421112896534,-0.04528400293298922,-0.224389799432647,0.9567945174533591],"scale":[0.040644471227340044,0.03098637866611101,0.03621784547011001],"translation":[-0.17216116910490492,1.6022998613122257,-0.5417287250754983]},{"children":[26,27,28,29],"extensions":{"S8S_v3d_node_data":{"groupNames":["Clit_organism","Ruyi"],"hidden":false,"hidpiCompositing":false}},"name":"Clit_pearls_grp","rotation":[0.0,0.0,0.0,1.0],"scale":[1.0,1.0,1.0],"translation":[0.0,0.0,0.0]},{"extensions":{"S8S_v3d_node_data":{"frustumCulling":true,"groupNames":["Clit_pearls_grp","Clit_organism","Ruyi"],"hidden":false,"hidpiCompositing":false,"renderOrder":0,"useCastShadows":true,"useShadows":true}},"mesh":13,"name":"pSphere1","rotation":[-0.17288168262997575,0.0,0.0,0.9849425992467928],"scale":[0.06072144149684319,0.04629258353120482,0.054108214929258845],"translation":[-0.01337949905551407,1.7814821934851388,-0.22117570666377853]},{"extensions":{"S8S_v3d_node_data":{"frustumCulling":true,"groupNames":["Clit_pearls_grp","Clit_organism","Ruyi"],"hidden":false,"hidpiCompositing":false,"renderOrder":0,"useCastShadows":true,"useShadows":true}},"mesh":14,"name":"pSphere2","rotation":[0.036614294548701645,0.0,0.0,0.9993294719133929],"scale":[0.04476063242210209,0.034124442111892896,0.03988571186325614],"translation":[-0.01337949905551407,1.7251212777578993,-0.2008482863168038]},{"extensions":{"S8S_v3d_node_data":{"frustumCulling":true,"groupNames":["Clit_pearls_grp","Clit_organism","Ruyi"],"hidden":false,"hidpiCompositing":false,"renderOrder":0,"useCastShadows":true,"useShadows":true}},"mesh":15,"name":"pSphere3","rotation":[0.19509287303348719,0.0,0.0,0.9807847729708795],"scale":[0.04086071245373586,0.03115123583664345,0.036410535670901766],"translation":[-0.011031030328223246,1.66830402412948,-0.1996476833737343]},{"extensions":{"S8S_v3d_node_data":{"frustumCulling":true,"groupNames":["Clit_pearls_grp","Clit_organism","Ruyi"],"hidden":false,"hidpiCompositing":false,"renderOrder":0,"useCastShadows":true,"useShadows":true}},"mesh":16,"name":"pSphere4","rotation":[0.41442873177355766,0.0,0.0,0.9100817690079066],"scale":[0.04086071245373586,0.03115123583664345,0.03641053567090176],"translation":[-0.011031030328223246,1.5943528662881647,-0.24669914578871374]},{"extensions":{"S8S_v3d_node_data":{"hidden":false,"hidpiCompositing":false}},"name":"nurbsCircle1","rotation":[0.0,-0.09410831331851434,0.0,0.99556196460308],"scale":[1.0,1.0,1.0],"translation":[-0.09764017429746707,0.002390030495949186,-0.009229713912306647]},{"extensions":{"S8S_v3d_node_data":{"frustumCulling":true,"hidden":false,"hidpiCompositing":false,"renderOrder":0,"useCastShadows":true,"useShadows":true}},"mesh":17,"name":"pCone1","rotation":[0.0,0.0,0.0,1.0],"scale":[0.7372003957204111,0.7372003957204111,0.7372003957204111],"translation":[-2.8724288643721043,0.0,0.0]},{"extensions":{"S8S_v3d_node_data":{"frustumCulling":true,"hidden":false,"hidpiCompositing":false,"renderOrder":0,"useCastShadows":true,"useShadows":true}},"mesh":18,"name":"pTorus1","rotation":[-0.375323020691207,0.0,0.0,0.9268940770871437],"scale":[0.3344122679630644,0.33441226796306445,0.33441226796306445],"translation":[0.20302928956409438,1.4189194379645464,0.9739862876279921]},{"camera":0,"extensions":{"S8S_v3d_node_data":{"hidden":true,"hidpiCompositing":false}},"name":"persp","rotation":[-0.2716694330446657,-0.02519176141800657,-0.007113914464572476,0.9620345557862455],"scale":[1.0,1.0,1.0],"translation":[-0.4932857578013975,6.175690009179288,8.932954212590248]}],"samplers":[{}],"scene":0,"scenes":[{"extensions":{"S8S_v3d_scene_data":{"aaMethod":"AUTO","iblEnvironmentMode":"PMREM","physicallyCorrectLights":true,"pmremMaxTileSize":256,"shadowMap":{"esmDistanceScale":2.5,"renderReverseSided":false,"renderSingleSided":true,"type":"PCFPOISSON"},"unitsScaleFactor":1.0,"useHDR":false,"worldMaterial":9}},"extras":{"animFrameRate":24.0,"coordSystem":"Y_UP_RIGHT"},"name":"Scene","nodes":[0,2,5,6,7,8,9,10,11,12,30,31,32,33]}],"textures":[{"extensions":{"S8S_v3d_texture_data":{"colorSpace":"srgb"}},"name":"file1","sampler":0,"source":0}]}